<?xml version="1.0" encoding="UTF-8"?>
<!DOCTYPE svg PUBLIC "-//W3C//DTD SVG 1.1//EN" "http://www.w3.org/Graphics/SVG/1.1/DTD/svg11.dtd">
<!-- Creator: CorelDRAW -->
<svg xmlns="http://www.w3.org/2000/svg" xml:space="preserve" width="0.227138in" height="0.226835in" style="shape-rendering:geometricPrecision; text-rendering:geometricPrecision; image-rendering:optimizeQuality; fill-rule:evenodd; clip-rule:evenodd"
viewBox="0 0 0.00696297 0.00695368"
 xmlns:xlink="http://www.w3.org/1999/xlink">
 <defs>
  <style type="text/css">
   <![CDATA[
    .str0 {stroke:#DEDEDD;stroke-width:0.000425674}
    .fil0 {fill:#C1E0B9}
    .fil2 {fill:#00923F;fill-rule:nonzero}
    .fil1 {fill:#1F1A17;fill-rule:nonzero}
   ]]>
  </style>
    <mask id="id0">
  <linearGradient id="id1" gradientUnits="userSpaceOnUse" x1="0.00128438" y1="0.00572131" x2="0.00567871" y2="0.00123237">
   <stop offset="0" style="stop-opacity:1; stop-color:white"/>
   <stop offset="1" style="stop-opacity:0; stop-color:white"/>
  </linearGradient>
     <rect style="fill:url(#id1)" width="0.00696273" height="0.00695344"/>
    </mask>
 </defs>
 <g id="Layer_x0020_1">
  <metadata id="CorelCorpID_0Corel-Layer"/>
  <g id="_43289120">
   <polygon id="_43292800" class="fil0 str0" style="mask:url(#id0)" points="0.000212897,0.000212897 0.00675008,0.000212897 0.00675008,0.00674078 0.000212897,0.00674078 "/>
   <g>
    <path id="_43292008" class="fil1" d="M0.00495566 0.00181313c0.000100535,1.56897e-006 0.000135414,-0.000102828 0.000138673,0.000168483l0 0.00371388 -0.00388224 0 0 -0.00388236 0.00374357 0m-0.000249949 0.000558795c-4.85174e-005,-9.37762e-005 -7.72417e-006,-0.000157863 -0.000251639,-0.000172828l-0.00285336 2.65518e-006 0 0.00310511 0.00310499 0 0 -0.00293494z"/>
    <path id="_43289992" class="fil2" d="M0.00480902 0.00185621c0.000121656,-8.23106e-005 0.000738623,-0.000538881 0.000847848,-0.00059814l9.40176e-005 0.000133604c-9.13624e-005,6.78278e-005 -0.000191535,0.00015038 -0.000301725,0.000247053l-0.000388622 0.000390432c-0.00026588,0.000283742 -0.000556864,0.000653416 -0.000874641,0.00111107 -0.000316932,0.000456571 -0.000552399,0.000846882 -0.00070652,0.00117106l-0.000194311 0.000130828c-0.000161121,0.00011188 -0.000270346,0.000196001 -0.000327674,0.000251518 -2.23277e-005,-8.32762e-005 -7.25347e-005,-0.000219415 -0.000149535,-0.000406484l-7.33796e-005 -0.000167518c-0.000104759,-0.000246087 -0.000202397,-0.000428812 -0.000292794,-0.000545157 -8.94314e-005,-0.000117311 -0.00019069,-0.000194311 -0.00030257,-0.000231122 0.000188759,-0.000201432 0.000362553,-0.000301605 0.000521864,-0.000301605 0.000132518,0 0.000281208,0.000182604 0.00044595,0.000547933l8.14658e-005 0.000183449c0.000308967,-0.000521019 0.000789796,-0.00110299 0.00144237,-0.00174675l0.000178259 -0.000170173z"/>
   </g>
  </g>
 </g>
</svg>
